<?xml version="1.0" standalone="no"?>
<!DOCTYPE svg PUBLIC "-//W3C//DTD SVG 20010904//EN"
 "http://www.w3.org/TR/2001/REC-SVG-20010904/DTD/svg10.dtd">
<svg version="1.0" xmlns="http://www.w3.org/2000/svg"
 width="700.000000pt" height="700.000000pt" viewBox="0 0 700.000000 700.000000"
 preserveAspectRatio="xMidYMid meet">
<metadata>
Created by potrace 1.11, written by Peter Selinger 2001-2013
</metadata>
<g transform="translate(0.000000,700.000000) scale(0.100000,-0.100000)"
fill="#000000" stroke="none">
<path d="M3428 6635 c-2 -2 -64 -5 -138 -9 -177 -8 -371 -31 -470 -56 -19 -5
-82 -21 -140 -35 -355 -88 -767 -282 -1043 -491 -247 -188 -488 -445 -668
-715 -55 -82 -163 -259 -164 -269 -1 -3 -16 -34 -35 -70 -178 -339 -326 -819
-366 -1185 -3 -33 -8 -63 -10 -66 -4 -8 -18 -293 -17 -379 0 -85 13 -332 18
-340 1 -3 6 -30 9 -60 7 -63 12 -94 27 -166 5 -28 12 -64 15 -80 10 -56 75
-267 111 -357 39 -101 103 -233 154 -318 17 -30 40 -67 49 -84 44 -77 256
-425 281 -462 16 -23 29 -44 29 -47 0 -8 80 -126 86 -126 7 0 -109 226 -232
451 -225 412 -276 519 -327 690 -29 94 -57 201 -63 239 -3 14 -7 36 -9 50 -13
62 -15 78 -20 120 -3 25 -8 54 -10 65 -21 101 -22 613 -1 720 2 11 7 46 11 79
9 77 18 132 49 289 57 286 200 664 360 949 414 740 1021 1203 1830 1398 44 10
97 22 116 25 19 3 42 8 50 10 8 2 39 7 69 10 30 4 63 8 74 11 120 23 650 22
737 -1 8 -2 35 -7 60 -10 140 -18 358 -70 520 -125 341 -114 671 -298 959
-537 91 -74 331 -322 402 -413 290 -373 486 -778 578 -1195 54 -242 66 -364
66 -645 -1 -176 -11 -395 -19 -409 -2 -3 -7 -26 -10 -51 -8 -60 -15 -100 -22
-130 -3 -14 -8 -36 -10 -50 -12 -63 -64 -239 -107 -360 -224 -631 -653 -1161
-1222 -1512 -137 -84 -177 -102 -345 -153 -148 -45 -422 -117 -485 -129 -31
-5 -181 -31 -250 -42 -85 -14 -538 -13 -630 1 -351 55 -621 174 -889 394 -210
173 -329 370 -353 586 -17 152 0 338 48 530 11 44 22 88 24 98 6 27 12 46 63
207 25 80 47 150 48 155 3 11 37 108 82 230 59 161 261 664 317 790 8 17 53
122 101 235 85 200 307 710 357 820 14 30 50 112 81 182 51 116 245 551 301
673 51 113 68 146 72 141 4 -4 69 -242 78 -286 2 -8 19 -76 39 -150 59 -225
75 -288 122 -470 25 -96 59 -226 75 -289 17 -63 32 -122 34 -132 2 -11 38
-150 80 -311 42 -161 78 -300 80 -308 2 -8 26 -100 53 -205 28 -104 65 -244
82 -310 17 -66 40 -153 51 -193 11 -40 22 -81 24 -90 7 -30 124 -462 191 -707
69 -249 84 -305 79 -305 -1 0 -35 46 -75 103 -41 56 -76 104 -80 107 -3 3 -35
41 -70 85 -134 168 -381 395 -540 497 -228 146 -533 260 -835 312 -94 15 -209
21 -202 9 9 -14 87 -47 253 -107 244 -88 415 -165 558 -250 374 -222 700 -615
1034 -1246 96 -182 128 -219 194 -224 45 -4 80 10 113 44 54 56 52 78 -47 455
-28 105 -51 197 -53 205 -2 8 -17 67 -33 130 -28 104 -409 1624 -417 1660 -2
8 -31 125 -65 260 -34 135 -63 252 -65 260 -2 8 -20 80 -40 160 -19 80 -38
156 -41 169 -3 13 -23 94 -45 180 -22 86 -42 163 -44 172 -2 9 -18 72 -35 140
-17 68 -33 132 -35 142 -2 9 -11 45 -20 80 -9 34 -18 69 -20 77 -7 32 -145
569 -165 640 -11 41 -23 84 -25 94 -7 30 -47 83 -75 99 -14 9 -47 18 -73 21
-84 10 -145 -36 -195 -146 -12 -26 -22 -50 -22 -52 0 -3 -16 -40 -36 -83 -20
-43 -77 -168 -126 -277 -50 -110 -94 -206 -98 -215 -5 -9 -48 -104 -96 -211
-47 -107 -108 -242 -134 -300 -224 -494 -608 -1395 -747 -1750 -200 -513 -332
-950 -358 -1190 -3 -30 -8 -73 -11 -95 -3 -22 -5 -92 -5 -155 -2 -479 307
-888 891 -1181 170 -85 287 -122 558 -174 13 -2 57 -7 98 -10 42 -4 85 -9 97
-11 25 -5 341 -5 402 0 84 7 171 17 185 21 8 2 35 7 60 10 42 5 55 8 120 20
14 3 39 8 55 11 17 2 48 10 70 15 22 6 48 13 57 14 34 7 244 64 308 85 36 11
103 32 150 47 85 27 282 119 288 135 2 4 8 8 13 8 21 0 263 169 377 264 203
168 448 436 594 651 285 420 481 927 533 1381 4 32 9 61 10 64 16 26 22 377
11 582 -9 166 -64 509 -95 590 -5 13 -9 28 -10 33 -14 92 -117 364 -209 550
-113 229 -211 386 -369 590 -149 192 -434 461 -649 612 -413 289 -917 485
-1409 549 -27 3 -61 8 -75 10 -14 2 -81 6 -150 9 -69 4 -146 8 -172 9 -26 2
-49 2 -50 1z"/>
</g>
</svg>
